<?xml version="1.0" encoding="UTF-8"?>
<svg version="1.1" xmlns="http://www.w3.org/2000/svg" width="1365" height="1310">
<path d="M0 0 C1.20785156 0.16097168 2.41570312 0.32194336 3.66015625 0.48779297 C40.24370417 5.53597343 77.33875905 14.98054166 110.68481445 31.04077148 C115.93115882 33.48574103 119.22836741 34.712251 125 33 C128.51385712 31.66129724 131.93890184 30.15055139 135.375 28.625 C166.7323209 15.21822015 199.44438183 6.30224365 233.125 1.125 C234.36636719 0.93373535 235.60773437 0.7424707 236.88671875 0.54541016 C257.02639745 -2.34481224 277.169509 -3.38439696 297.5 -3.3125 C298.58228882 -3.31067719 299.66457764 -3.30885437 300.77966309 -3.30697632 C385.83016652 -3.06731607 475.19547332 21.73836623 542.29736328 75.63525391 C543.79907045 76.8389452 545.31819841 78.02083316 546.83984375 79.19921875 C552.47558808 83.58851093 557.72397719 88.32442749 562.9453125 93.19140625 C565.21974738 95.30830122 567.55335033 97.34255077 569.91015625 99.3671875 C573.94927024 102.88968177 577.66182151 106.64224639 581.3125 110.5625 C581.96057617 111.25722412 582.60865234 111.95194824 583.27636719 112.66772461 C588.75750962 118.61239575 593.8414862 124.7842329 598.68945312 131.25244141 C600.02642764 133.03524013 601.38010143 134.80453857 602.734375 136.57421875 C609.84948392 145.97013352 616.09952259 155.80255766 622 166 C622.39429199 166.67724121 622.78858398 167.35448242 623.19482422 168.05224609 C638.15539966 194.0625941 647.44832836 223.42303589 652 253 C652.11714355 253.73863281 652.23428711 254.47726562 652.35498047 255.23828125 C662.12087195 319.66704529 641.93224272 386.14667119 603.91796875 438.15625 C599.54301153 443.9992842 594.8219161 449.52439511 590 455 C589.38769531 455.7115625 588.77539062 456.423125 588.14453125 457.15625 C586.44873946 459.12191839 584.72858365 461.06310923 583 463 C581.82244141 464.33417969 581.82244141 464.33417969 580.62109375 465.6953125 C570.38737445 477.16636765 559.12429675 487.54852299 547 497 C546.15477783 497.66201416 546.15477783 497.66201416 545.29248047 498.33740234 C463.36351886 562.1863954 355.70171541 588.16505219 249.328125 576.9765625 C210.8077553 572.00453188 173.56615766 563.23914595 137.62109375 548.359375 C136.70054199 547.98304932 135.77999023 547.60672363 134.83154297 547.21899414 C132.84004744 546.36164484 130.8766689 545.43743879 128.93798828 544.46655273 C123.52577933 541.71605093 123.52577933 541.71605093 117.63061523 541.28857422 C115.26890974 542.19350468 113.18758293 543.29387685 111 544.5625 C109.26951805 545.44644299 107.53348625 546.3195788 105.79296875 547.18359375 C104.40343994 547.88137939 104.40343994 547.88137939 102.98583984 548.59326172 C68.44275386 564.86777206 28.63355077 572.43835748 -9 577 C-9.91910156 577.11859375 -10.83820313 577.2371875 -11.78515625 577.359375 C-45.24963176 581.54866851 -80.61371267 580.40340424 -114 576 C-115.22638184 575.83902832 -116.45276367 575.67805664 -117.71630859 575.51220703 C-189.8508999 565.60690304 -261.26621201 536.65225599 -316 488 C-316.73903564 487.34708984 -317.47807129 486.69417969 -318.23950195 486.02148438 C-331.36125809 474.3372204 -344.38422837 462.04647831 -355 448 C-355.77859375 447.02675781 -356.5571875 446.05351563 -357.359375 445.05078125 C-368.01131847 431.68322786 -377.04918877 417.11542875 -385 402 C-385.59312988 400.88093262 -385.59312988 400.88093262 -386.19824219 399.73925781 C-400.16902766 373.00531226 -409.01295624 343.00936986 -412 313 C-412.11085938 311.9275 -412.22171875 310.855 -412.3359375 309.75 C-417.81373614 246.97738856 -398.30201891 180.73254328 -358 132 C-357.24203125 131.05253906 -356.4840625 130.10507812 -355.703125 129.12890625 C-347.4229556 118.83579912 -338.45880967 109.2778186 -329.125 99.9375 C-328.20847656 99.00873047 -327.29195313 98.07996094 -326.34765625 97.12304688 C-320.2129154 90.97536354 -313.81584377 85.37828786 -307 80 C-305.93993913 79.14213098 -304.88000771 78.28410192 -303.8203125 77.42578125 C-288.80886302 65.65593463 -272.6665988 55.26290315 -256 46 C-255.22285645 45.56623047 -254.44571289 45.13246094 -253.64501953 44.68554688 C-210.56006037 20.84948987 -162.63130372 6.70277449 -114 0 C-112.80262207 -0.16516113 -111.60524414 -0.33032227 -110.37158203 -0.50048828 C-74.1262003 -5.23112455 -36.20094681 -4.94765926 0 0 Z M114.4140625 39.16796875 C113.49359131 39.64250488 112.57312012 40.11704102 111.62475586 40.60595703 C110.63483643 41.12786621 109.64491699 41.64977539 108.625 42.1875 C107.60220947 42.72487793 106.57941895 43.26225586 105.52563477 43.81591797 C84.63246506 54.94070621 65.36549381 68.12096162 47 83 C46.47035645 83.4237793 45.94071289 83.84755859 45.39501953 84.28417969 C36.82346803 91.18278068 28.98153885 98.81127442 21.1875 106.5625 C20.69935822 107.04537476 20.21121643 107.52824951 19.70828247 108.02575684 C13.01101285 114.66707612 6.82709217 121.5789143 1 129 C0.19284546 130.01815796 0.19284546 130.01815796 -0.63061523 131.05688477 C-41.8612982 183.59219569 -63.13493311 249.58392864 -55.28515625 316.33203125 C-48.96799777 365.47302496 -28.60225135 410.95065912 3 449 C3.80050781 449.98613281 4.60101562 450.97226562 5.42578125 451.98828125 C11.74301346 459.65156366 18.56203734 466.77120388 25.5625 473.8125 C26.42447998 474.68366455 27.28645996 475.5548291 28.17456055 476.45239258 C34.14163535 482.39122756 40.42070974 487.75463537 47 493 C48.20838371 494.00070944 49.41450717 495.004162 50.6171875 496.01171875 C65.81925163 508.5766432 82.47073768 519.14435281 99.69042969 528.71533203 C101.26254414 529.58979992 102.83077878 530.47127137 104.39550781 531.35888672 C106.7134566 532.67201275 109.04184311 533.96412967 111.375 535.25 C112.07077148 535.64550049 112.76654297 536.04100098 113.48339844 536.44848633 C117.54183135 538.63853698 119.59925286 539.24799188 124 538 C126.24123003 537.07057407 126.24123003 537.07057407 128.44921875 535.8828125 C129.28783447 535.44670654 130.1264502 535.01060059 130.99047852 534.5612793 C131.88049561 534.08730713 132.7705127 533.61333496 133.6875 533.125 C135.08536743 532.38407104 135.08536743 532.38407104 136.51147461 531.62817383 C162.56022532 517.67245763 186.72708744 500.68097516 208.3203125 480.4921875 C210.7746035 478.20962532 213.27831987 476.00537641 215.8125 473.8125 C219.18996916 470.82171783 222.16867789 467.68094761 225.07421875 464.234375 C227.36502042 461.57648746 229.77805547 459.05077103 232.1875 456.5 C247.43317079 440.06758784 259.63674873 420.79542919 270 401 C270.4125 400.21979492 270.825 399.43958984 271.25 398.63574219 C285.19324679 371.93660321 294.02406257 341.96699789 297 312 C297.11085938 310.90429688 297.22171875 309.80859375 297.3359375 308.6796875 C303.15233237 240.9265473 278.92320945 175.23764211 235.55200195 123.62084961 C223.04439347 108.8855328 223.04439347 108.8855328 208.98828125 95.6796875 C206.59807124 93.66045311 204.34400058 91.51625842 202.0625 89.375 C187.17709991 75.87239664 134.47228193 28.82129371 114.4140625 39.16796875 Z " fill="#FCC60D" transform="translate(549,360)"/>
<path d="M0 0 C1.20785156 0.16097168 2.41570312 0.32194336 3.66015625 0.48779297 C44.55799859 6.13130488 83.30783836 18.34876752 121 35 C121 35.66 121 36.32 121 37 C120.35264893 37.32572998 119.70529785 37.65145996 119.03833008 37.98706055 C93.24236633 51.02720341 69.43961792 65.80934163 47 84 C46.46503906 84.42909668 45.93007813 84.85819336 45.37890625 85.30029297 C37.00678655 92.05786269 29.31194578 99.48199961 21.6875 107.0625 C20.76839844 107.97233643 19.84929687 108.88217285 18.90234375 109.81958008 C12.84472616 115.90510035 7.3077987 122.25308523 2 129 C1.46125244 129.6794165 0.92250488 130.35883301 0.36743164 131.05883789 C-40.85708369 183.60152064 -62.1354967 249.57913631 -54.28515625 316.33203125 C-47.96865111 365.46794263 -27.60608784 410.95776336 4 449 C4.81210937 449.99773437 5.62421875 450.99546875 6.4609375 452.0234375 C18.51329656 466.61427723 31.97912687 480.46414589 47 492 C48.08778821 492.89592528 49.17219467 493.7959661 50.25390625 494.69921875 C71.81763943 512.58734933 96.19237198 526.19337456 121 539 C98.20511647 564.0810697 31.85247953 572.03276222 0 576 C-1.155 576.14808105 -2.31 576.29616211 -3.5 576.44873047 C-39.97288121 580.93539713 -77.57047352 580.80478496 -114 576 C-115.22638184 575.83902832 -116.45276367 575.67805664 -117.71630859 575.51220703 C-189.8508999 565.60690304 -261.26621201 536.65225599 -316 488 C-316.73903564 487.34708984 -317.47807129 486.69417969 -318.23950195 486.02148438 C-331.36125809 474.3372204 -344.38422837 462.04647831 -355 448 C-355.77859375 447.02675781 -356.5571875 446.05351563 -357.359375 445.05078125 C-368.01131847 431.68322786 -377.04918877 417.11542875 -385 402 C-385.59312988 400.88093262 -385.59312988 400.88093262 -386.19824219 399.73925781 C-400.16902766 373.00531226 -409.01295624 343.00936986 -412 313 C-412.11085938 311.9275 -412.22171875 310.855 -412.3359375 309.75 C-417.81373614 246.97738856 -398.30201891 180.73254328 -358 132 C-357.24203125 131.05253906 -356.4840625 130.10507812 -355.703125 129.12890625 C-347.4229556 118.83579912 -338.45880967 109.2778186 -329.125 99.9375 C-328.20847656 99.00873047 -327.29195313 98.07996094 -326.34765625 97.12304688 C-320.2129154 90.97536354 -313.81584377 85.37828786 -307 80 C-305.93993913 79.14213098 -304.88000771 78.28410192 -303.8203125 77.42578125 C-288.80886302 65.65593463 -272.6665988 55.26290315 -256 46 C-255.22285645 45.56623047 -254.44571289 45.13246094 -253.64501953 44.68554688 C-210.56006037 20.84948987 -162.63130372 6.70277449 -114 0 C-112.80262207 -0.16516113 -111.60524414 -0.33032227 -110.37158203 -0.50048828 C-74.1262003 -5.23112455 -36.20094681 -4.94765926 0 0 Z " fill="#3D3F95" transform="translate(549,360)"/>
</svg>
